<svg width="28" height="28" viewBox="0 0 20 20" fill="none" xmlns="http://www.w3.org/2000/svg">
<rect width="20" height="20" rx="4" fill="#EDF2F8"/>
<path d="M14.4018 13.4735C14.5251 13.5968 14.5943 13.764 14.5943 13.9383C14.5943 14.1127 14.5251 14.2799 14.4018 14.4032C14.2785 14.5265 14.1113 14.5957 13.9369 14.5957C13.7626 14.5957 13.5954 14.5265 13.4721 14.4032L9.99998 10.93L6.52677 14.4021C6.40349 14.5254 6.23628 14.5946 6.06193 14.5946C5.88758 14.5946 5.72037 14.5254 5.59709 14.4021C5.4738 14.2788 5.40454 14.1116 5.40454 13.9372C5.40454 13.7629 5.4738 13.5957 5.59709 13.4724L9.07029 10.0003L5.59818 6.52708C5.4749 6.40379 5.40563 6.23658 5.40563 6.06223C5.40563 5.88788 5.4749 5.72067 5.59818 5.59739C5.72146 5.4741 5.88867 5.40484 6.06302 5.40484C6.23737 5.40484 6.40458 5.4741 6.52787 5.59739L9.99998 9.07059L13.4732 5.59684C13.5965 5.47356 13.7637 5.4043 13.938 5.4043C14.1124 5.4043 14.2796 5.47356 14.4029 5.59684C14.5262 5.72013 14.5954 5.88733 14.5954 6.06169C14.5954 6.23604 14.5262 6.40324 14.4029 6.52653L10.9297 10.0003L14.4018 13.4735Z" fill="#AFAFAF"/>
</svg>
