<svg width="32" height="32" viewBox="0 0 20 20" fill="none" xmlns="http://www.w3.org/2000/svg">
<g clip-path="url(#clip0_1_42)">
<path fill-rule="evenodd" clip-rule="evenodd" d="M20.0004 9.99743C20.0004 4.4752 15.5238 -0.001297 10.0015 -0.001297C4.47947 -0.001297 0.00280762 4.4752 0.00280762 9.99743C0.00280762 15.5197 4.47947 19.9962 10.0015 19.9962C15.5238 19.9962 20.0004 15.5197 20.0004 9.99743ZM8.72872 6.75588H9.5758C9.66422 6.74765 9.75273 6.74372 9.8434 6.73969C9.92644 6.73599 10.0113 6.73222 10.0996 6.725C10.0843 6.95631 10.1303 7.23364 10.2382 7.55696C10.3614 7.88045 10.5157 8.23434 10.6849 8.60399L11.9938 11.2228C12.2411 11.7501 12.4924 12.2838 12.765 12.7981H12.7957C13.0995 12.3013 13.3341 11.8029 13.5782 11.2843C13.6095 11.2178 13.641 11.151 13.6727 11.0838L14.7513 8.91237C14.9039 8.59768 15.0387 8.31218 15.1594 8.05643C15.2337 7.89918 15.3026 7.75319 15.3671 7.61857C15.5057 7.27964 15.5982 6.98639 15.6137 6.725C15.7016 6.73166 15.7807 6.73538 15.8536 6.73881C15.9462 6.74317 16.0288 6.74706 16.1065 6.75588H16.9382C17.0263 6.74767 17.1188 6.74373 17.2133 6.73971C17.3001 6.73601 17.3888 6.73224 17.4774 6.725C17.5081 6.75588 17.5237 6.80189 17.5237 6.84838C17.5388 6.92527 17.5237 6.97143 17.4927 7.00232L17.2613 7.01792C17.0149 7.04832 16.8304 7.09498 16.7223 7.15659C16.6149 7.23364 16.538 7.35669 16.5066 7.49503C16.4757 7.6493 16.4606 7.8494 16.4606 8.11128V9.57511C16.4677 9.83429 16.4782 10.1002 16.489 10.373C16.5013 10.6832 16.5139 11.0024 16.5222 11.3307C16.5372 11.905 16.5586 12.4873 16.5901 13.0603C16.5901 13.2452 16.6056 13.4154 16.6214 13.5539C16.6368 13.6772 16.6987 13.7699 16.775 13.8468C16.8525 13.9238 16.9759 13.9702 17.1456 13.9861L17.5159 14.0168C17.5466 14.063 17.5619 14.109 17.5466 14.1711C17.5466 14.2327 17.5315 14.2789 17.4852 14.3098C17.2532 14.2945 17.0219 14.2789 16.7909 14.2633H15.464C15.3276 14.2725 15.1861 14.2816 15.0456 14.2908C14.9476 14.2971 14.85 14.3035 14.755 14.3098C14.7085 14.2633 14.6929 14.2174 14.6929 14.1711C14.6777 14.094 14.6929 14.0472 14.7238 14.0168L15.0632 13.9861C15.2637 13.9702 15.3869 13.9396 15.449 13.8627C15.5548 13.8089 15.5859 13.7042 15.5982 13.594C15.6137 13.4552 15.6286 13.2712 15.6137 13.0251L15.5825 8.26523H15.5669C15.5363 8.31155 15.4748 8.43461 15.398 8.6196C15.3053 8.78899 15.1977 8.98926 15.0897 9.20481C15.0064 9.35936 14.9417 9.50489 14.8809 9.64146C14.8631 9.68156 14.8456 9.72089 14.828 9.75945L13.8268 11.7464C13.4832 12.3761 13.1789 13.0015 12.8871 13.6563C12.7757 13.8783 12.6758 14.1106 12.58 14.3402C12.5205 14.3988 12.4233 14.4003 12.364 14.3402C12.3544 14.3072 12.2681 14.0233 12.2557 14.0233C12.2079 13.8939 12.1515 13.7564 12.0863 13.6096C12.0015 13.4193 11.9098 13.2291 11.8156 13.0338C11.7727 12.9447 11.7292 12.8545 11.6856 12.7629C11.5627 12.4857 11.4553 12.2547 11.3623 12.0692L10.3302 9.86739C10.2119 9.615 10.0933 9.34844 9.97454 9.0812L9.9609 9.05054C9.85313 8.75794 9.72975 8.49606 9.60637 8.23434H9.5758C9.56469 8.4707 9.55397 8.70729 9.54326 8.94368C9.53862 9.04611 9.53398 9.1485 9.52931 9.25081C9.52159 9.42583 9.50939 9.60097 9.49734 9.77399C9.48607 9.93586 9.47493 10.0959 9.4677 10.2522C9.45259 10.6062 9.43714 11.0225 9.4217 11.5C9.41119 11.832 9.40516 12.1638 9.39913 12.4957C9.39648 12.6412 9.39384 12.7867 9.39081 12.9322C9.3861 13.1623 9.38805 13.5327 9.47908 13.7517C9.50217 13.804 9.53321 13.847 9.5719 13.8783C9.64879 13.9396 9.75673 13.9702 9.89588 13.9861L10.3275 14.0168C10.3741 14.063 10.3894 14.109 10.3894 14.1711C10.3894 14.2327 10.3587 14.2789 10.3122 14.3098C10.1272 14.2945 9.92644 14.2789 9.69545 14.2633H8.47659C8.38706 14.2702 8.30061 14.2772 8.21452 14.2841C8.10771 14.2927 8.00146 14.3013 7.89057 14.3098C7.84424 14.2633 7.82896 14.2174 7.82896 14.1711C7.81336 14.094 7.82896 14.0472 7.87497 14.0168L8.12206 13.9861C8.276 13.9702 8.3997 13.9238 8.5078 13.8783C8.6003 13.8315 8.67703 13.7543 8.72352 13.6311C8.91666 13.1186 8.98537 11.4338 9.01737 10.6491C9.01864 10.6181 9.01984 10.5886 9.021 10.5605L9.02455 10.506C9.05435 10.0476 9.08321 9.6039 9.09837 9.17376C9.11382 8.72705 9.12877 8.34228 9.14454 8.01895C9.15982 7.78763 9.14454 7.60313 9.11382 7.46447C9.08261 7.32581 9.00588 7.21787 8.89843 7.15659C8.79 7.10993 8.62062 7.0636 8.39011 7.01792L8.20545 7.00232C8.17407 6.95632 8.15879 6.91015 8.17407 6.84838C8.18952 6.78693 8.20545 6.74011 8.25145 6.725C8.33056 6.73206 8.40971 6.73583 8.48573 6.73944C8.57233 6.74356 8.65488 6.74749 8.72872 6.75588ZM3.20893 13.5062C3.2403 13.3017 3.25574 13.0031 3.25574 12.6109L3.26891 11.4749C3.55176 11.5219 3.86566 11.5378 4.21125 11.5219V12.6219C4.19549 13.0137 4.21125 13.3118 4.24246 13.516C4.27107 13.7029 4.33919 13.8235 4.43428 13.9025C4.43981 13.9069 4.4455 13.9112 4.45119 13.9152C4.54547 13.9939 4.71827 14.041 4.96991 14.0573L5.28446 14.0887C5.31615 14.1197 5.33176 14.1674 5.33176 14.2459C5.31615 14.3086 5.2999 14.3558 5.26853 14.3871L5.2611 14.3868C4.74485 14.3625 4.2616 14.3398 3.74341 14.3398C3.25509 14.3398 2.81505 14.3569 2.32835 14.3871C2.24187 14.3301 2.23602 14.1649 2.31193 14.0887L2.54797 14.0573C2.91648 14.0319 3.17788 13.9022 3.20893 13.5062ZM2.31128 7.03158C2.26414 6.98411 2.23261 6.93713 2.24805 6.87455C2.24805 6.81148 2.27975 6.7645 2.32656 6.7328C2.62518 6.70143 2.97062 6.68582 3.34759 6.66989C3.72423 6.65428 4.14818 6.65428 4.61943 6.65428C5.10597 6.65428 5.53008 6.68582 5.89128 6.7484C6.26809 6.82692 6.59792 6.9529 6.86468 7.11026C7.13176 7.2824 7.33593 7.51811 7.50889 7.81641C7.68136 8.11519 7.77565 8.45981 7.79109 8.85254C7.77565 9.21391 7.71306 9.5122 7.60301 9.76352C7.46142 10.0299 7.30439 10.2348 7.13176 10.3601C6.83346 10.5646 6.55061 10.7374 6.26809 10.8629C5.96964 10.9728 5.63981 11.0666 5.27877 11.1142C4.57213 11.2236 3.81835 11.2399 3.04946 11.1451C2.57804 11.0981 1.84036 10.957 0.85087 10.753C1.74591 10.8471 2.56227 10.8946 3.31605 10.9094C4.17988 10.9255 4.82361 10.8783 5.27877 10.7683C5.75002 10.6584 6.09545 10.4389 6.331 10.14C6.59792 9.79489 6.72374 9.37094 6.70748 8.8688C6.70748 8.3031 6.55061 7.84745 6.23655 7.51811C5.90689 7.18828 5.4514 7.03158 4.85498 7.01581C4.65097 7.01581 4.49362 7.01581 4.39933 7.03158C4.32098 7.04653 4.25807 7.09433 4.24246 7.14114C4.21125 7.21982 4.19549 7.31394 4.21125 7.43944V10.6426C3.89687 10.6584 3.58297 10.6584 3.26891 10.6426V8.31871C3.26891 7.98953 3.25347 7.73773 3.23754 7.56509C3.22209 7.39262 3.17463 7.2824 3.09627 7.21982C3.01792 7.14114 2.8921 7.09433 2.71963 7.07807L2.31128 7.03158Z" fill="white"/>
</g>
<defs>
<clipPath id="clip0_1_42">
<rect width="20" height="20" fill="white"/>
</clipPath>
</defs>
</svg>
