<svg width="26" height="26" viewBox="0 0 16 16" fill="none" xmlns="http://www.w3.org/2000/svg">
<g clip-path="url(#clip0_1_73)">
<path fill-rule="evenodd" clip-rule="evenodd" d="M16.0003 7.99795C16.0003 3.58016 12.419 -0.0010376 8.00118 -0.0010376C3.58353 -0.0010376 0.00219727 3.58016 0.00219727 7.99795C0.00219727 12.4157 3.58353 15.9969 8.00118 15.9969C12.419 15.9969 16.0003 12.4157 16.0003 7.99795ZM6.98293 5.40471H7.6606C7.73133 5.39812 7.80214 5.39497 7.87468 5.39175C7.9411 5.3888 8.00899 5.38578 8.0796 5.38C8.06738 5.56505 8.10418 5.78691 8.19053 6.04557C8.28911 6.30436 8.41252 6.58747 8.5479 6.8832L9.59503 8.97823C9.79283 9.4001 9.99388 9.82704 10.212 10.2385H10.2365C10.4795 9.84107 10.6672 9.4423 10.8625 9.02745C10.8876 8.97425 10.9127 8.9208 10.9381 8.86704L11.801 7.12989C11.9231 6.87816 12.0309 6.64976 12.1275 6.44517C12.1869 6.31936 12.242 6.20256 12.2936 6.09486C12.4045 5.82371 12.4785 5.58911 12.4909 5.38C12.5612 5.38532 12.6245 5.38831 12.6829 5.39105C12.7569 5.39454 12.823 5.39765 12.8852 5.40471H13.5505C13.621 5.39813 13.695 5.39499 13.7706 5.39177C13.8401 5.38881 13.911 5.38579 13.9819 5.38C14.0064 5.40471 14.0189 5.44151 14.0189 5.4787C14.031 5.54021 14.0189 5.57715 13.9941 5.60185L13.809 5.61434C13.6119 5.63866 13.4643 5.67598 13.3778 5.72527C13.2918 5.78691 13.2303 5.88535 13.2052 5.99602C13.1805 6.11944 13.1684 6.27952 13.1684 6.48903V7.66009C13.1741 7.86742 13.1825 8.08014 13.1911 8.29835C13.201 8.54659 13.2111 8.80194 13.2177 9.06458C13.2297 9.52404 13.2468 9.98986 13.2721 10.4483C13.2721 10.5961 13.2844 10.7323 13.297 10.8431C13.3094 10.9418 13.3589 11.0159 13.4199 11.0774C13.482 11.1391 13.5807 11.1761 13.7164 11.1889L14.0127 11.2135C14.0373 11.2504 14.0495 11.2872 14.0373 11.3369C14.0373 11.3862 14.0252 11.4231 13.9881 11.4478C13.8025 11.4356 13.6175 11.4231 13.4327 11.4106H12.3711C12.262 11.418 12.1488 11.4253 12.0364 11.4326C11.9579 11.4377 11.8799 11.4428 11.804 11.4478C11.7668 11.4106 11.7543 11.3739 11.7543 11.3369C11.7421 11.2752 11.7543 11.2378 11.779 11.2135L12.0506 11.1889C12.2109 11.1761 12.3095 11.1517 12.3591 11.0902C12.4438 11.0471 12.4686 10.9634 12.4785 10.8752C12.4909 10.7642 12.5029 10.6169 12.4909 10.4201L12.4659 6.61218H12.4534C12.429 6.64924 12.3798 6.74769 12.3183 6.89568C12.2442 7.03119 12.1581 7.1914 12.0717 7.36384C12.0051 7.48749 11.9533 7.60391 11.9047 7.71316C11.8904 7.74525 11.8764 7.77671 11.8624 7.80756L11.0614 9.39711C10.7865 9.90091 10.5431 10.4012 10.3096 10.925C10.2205 11.1027 10.1406 11.2885 10.064 11.4721C10.0164 11.5191 9.93861 11.5202 9.89114 11.4721C9.88347 11.4457 9.81441 11.2187 9.80453 11.2187C9.7663 11.1151 9.72117 11.0051 9.66902 10.8877C9.60115 10.7354 9.52777 10.5832 9.45244 10.427C9.41807 10.3557 9.3833 10.2836 9.34846 10.2103C9.25014 9.98856 9.16418 9.80376 9.0898 9.65538L8.26414 7.89391C8.16943 7.69197 8.0746 7.47867 7.97953 7.26485L7.96867 7.24043C7.88245 7.00635 7.78375 6.79685 7.68504 6.58747H7.6606C7.6517 6.77653 7.64313 6.96578 7.63456 7.15486C7.63085 7.23683 7.62714 7.31877 7.6234 7.40065C7.61722 7.54066 7.60746 7.68078 7.59783 7.81919C7.58881 7.94869 7.5799 8.0767 7.57411 8.20173C7.56202 8.48497 7.54967 8.81802 7.53731 9.19996C7.5289 9.46556 7.52408 9.73104 7.51925 9.99652C7.51714 10.1129 7.51502 10.2294 7.5126 10.3458C7.50883 10.5298 7.51039 10.8262 7.58322 11.0014C7.60168 11.0432 7.62652 11.0776 7.65747 11.1027C7.71899 11.1517 7.80534 11.1761 7.91666 11.1889L8.26193 11.2135C8.29925 11.2504 8.31147 11.2872 8.31147 11.3369C8.31147 11.3862 8.2869 11.4231 8.2497 11.4478C8.10171 11.4356 7.9411 11.4231 7.75631 11.4106H6.78123C6.7096 11.4162 6.64044 11.4218 6.57156 11.4273C6.48612 11.4342 6.40112 11.441 6.31241 11.4478C6.27535 11.4106 6.26312 11.3739 6.26312 11.3369C6.25064 11.2752 6.26312 11.2378 6.29993 11.2135L6.4976 11.1889C6.62075 11.1761 6.71971 11.1391 6.80619 11.1027C6.88019 11.0652 6.94157 11.0034 6.97877 10.9049C7.13328 10.4949 7.18825 9.14702 7.21385 8.51925C7.21486 8.49449 7.21583 8.47085 7.21675 8.44843L7.21958 8.40482C7.24343 8.0381 7.26652 7.68314 7.27865 7.33901C7.29101 6.98164 7.30297 6.67382 7.31558 6.41516C7.32781 6.23011 7.31558 6.0825 7.29101 5.97157C7.26604 5.86065 7.20465 5.7743 7.11869 5.72527C7.03195 5.68794 6.89645 5.65088 6.71204 5.61434L6.56431 5.60185C6.53921 5.56505 6.52699 5.52812 6.53921 5.4787C6.55156 5.42954 6.56431 5.39209 6.60111 5.38C6.6644 5.38565 6.72771 5.38866 6.78853 5.39155C6.85781 5.39485 6.92385 5.39799 6.98293 5.40471ZM2.56709 10.805C2.59219 10.6414 2.60454 10.4025 2.60454 10.0887L2.61508 9.17993C2.84136 9.21752 3.09248 9.23026 3.36895 9.21752V10.0975C3.35634 10.4109 3.36895 10.6495 3.39392 10.8128C3.41681 10.9623 3.4713 11.0588 3.54738 11.122C3.5518 11.1255 3.55635 11.1289 3.5609 11.1322C3.63633 11.1951 3.77457 11.2328 3.97588 11.2458L4.22752 11.2709C4.25288 11.2958 4.26536 11.3339 4.26536 11.3967C4.25288 11.4469 4.23987 11.4846 4.21477 11.5097L4.20876 11.5094C3.79578 11.49 3.40921 11.4719 2.99468 11.4719C2.60402 11.4719 2.25199 11.4855 1.86263 11.5097C1.79345 11.4641 1.78877 11.3319 1.8495 11.2709L2.03833 11.2458C2.33314 11.2256 2.54225 11.1218 2.56709 10.805ZM1.84898 5.62526C1.81127 5.58729 1.78604 5.54971 1.79839 5.49964C1.79839 5.44918 1.82375 5.4116 1.8612 5.38624C2.1001 5.36114 2.37644 5.34866 2.67802 5.33591C2.97934 5.32343 3.3185 5.32343 3.6955 5.32343C4.08473 5.32343 4.42402 5.34866 4.71298 5.39872C5.01442 5.46154 5.27829 5.56232 5.49169 5.68821C5.70536 5.82592 5.86869 6.01449 6.00706 6.25312C6.14504 6.49215 6.22047 6.76785 6.23282 7.08204C6.22047 7.37113 6.1704 7.60976 6.08236 7.81081C5.96909 8.02396 5.84347 8.18781 5.70536 8.28808C5.46672 8.45168 5.24044 8.58992 5.01442 8.69031C4.77566 8.77822 4.5118 8.85326 4.22296 8.89136C3.65766 8.97888 3.05463 8.99189 2.43952 8.91607C2.06238 8.87849 1.47224 8.76561 0.680647 8.6024C1.39668 8.6777 2.04977 8.71567 2.65279 8.7275C3.34386 8.74038 3.85884 8.70267 4.22296 8.61462C4.59997 8.52671 4.87631 8.35115 5.06475 8.112C5.27829 7.83591 5.37894 7.49675 5.36594 7.09504C5.36594 6.64248 5.24044 6.27796 4.98919 6.01449C4.72546 5.75063 4.36107 5.62526 3.88394 5.61265C3.72073 5.61265 3.59484 5.61265 3.51942 5.62526C3.45673 5.63723 3.40641 5.67546 3.39392 5.71291C3.36895 5.77586 3.35634 5.85115 3.36895 5.95155V8.5141C3.11745 8.52671 2.86633 8.52671 2.61508 8.5141V6.65497C2.61508 6.39162 2.60272 6.19018 2.58998 6.05207C2.57763 5.91409 2.53965 5.82592 2.47697 5.77586C2.41429 5.71291 2.31363 5.67546 2.17565 5.66246L1.84898 5.62526Z" fill="#F01010"/>
</g>
<defs>
<clipPath id="clip0_1_73">
<rect width="16" height="16" fill="white"/>
</clipPath>
</defs>
</svg>
