<svg width="15" height="13" viewBox="0 0 12 10" fill="none" xmlns="http://www.w3.org/2000/svg">
<path d="M11.7143 1.90179L4.71427 8.90179C4.65331 8.96297 4.58086 9.01152 4.50109 9.04464C4.42132 9.07776 4.3358 9.09481 4.24943 9.09481C4.16306 9.09481 4.07754 9.07776 3.99777 9.04464C3.918 9.01152 3.84555 8.96297 3.78459 8.90179L0.722086 5.83929C0.661041 5.77825 0.612619 5.70578 0.579582 5.62602C0.546545 5.54626 0.529541 5.46078 0.529541 5.37445C0.529541 5.28812 0.546545 5.20264 0.579582 5.12288C0.612619 5.04312 0.661041 4.97065 0.722086 4.90961C0.78313 4.84856 0.8556 4.80014 0.935358 4.7671C1.01512 4.73407 1.1006 4.71706 1.18693 4.71706C1.27326 4.71706 1.35874 4.73407 1.4385 4.7671C1.51826 4.80014 1.59073 4.84856 1.65177 4.90961L4.24998 7.50781L10.7857 0.973199C10.909 0.849915 11.0762 0.780655 11.2505 0.780655C11.4249 0.780655 11.5921 0.849915 11.7154 0.973199C11.8387 1.09648 11.9079 1.26369 11.9079 1.43804C11.9079 1.61239 11.8387 1.7796 11.7154 1.90289L11.7143 1.90179Z" fill="#13A24B"/>
</svg>
